<?xml version="1.0" standalone="no"?>
<!DOCTYPE svg PUBLIC "-//W3C//DTD SVG 20010904//EN"
 "http://www.w3.org/TR/2001/REC-SVG-20010904/DTD/svg10.dtd">
<svg version="1.0" xmlns="http://www.w3.org/2000/svg"
 width="321.000000pt" height="240.000000pt" viewBox="0 0 321.000000 240.000000"
 preserveAspectRatio="xMidYMid meet">
<metadata>
Created by potrace 1.10, written by Peter Selinger 2001-2011
</metadata>
<g transform="translate(0.000000,240.000000) scale(0.100000,-0.100000)"
fill="#000000" stroke="none">
<path d="M2049 2331 c-106 -38 -164 -87 -221 -188 -32 -56 -33 -62 -33 -168 0
-100 3 -115 28 -167 33 -66 101 -140 159 -169 50 -25 137 -49 181 -49 39 0
127 23 173 45 46 22 136 106 155 146 9 19 22 47 30 63 9 19 14 64 14 130 0 90
-3 107 -27 156 -33 65 -88 128 -143 162 -90 56 -223 72 -316 39z"/>
<path d="M1030 1672 c-72 -21 -144 -93 -225 -225 -33 -53 -82 -132 -110 -175
-27 -43 -75 -117 -105 -165 -30 -48 -77 -122 -105 -165 -27 -43 -75 -117 -105
-165 -30 -48 -77 -122 -105 -165 -27 -43 -75 -117 -105 -165 -30 -48 -76 -120
-102 -160 -44 -66 -48 -77 -48 -133 0 -57 2 -63 37 -97 l36 -37 1499 0 1498 0
36 33 c35 31 36 36 36 100 0 62 -3 71 -43 129 -61 91 -83 122 -89 128 -5 5
-20 26 -148 215 -92 135 -116 169 -122 175 -3 3 -29 41 -59 85 -189 280 -210
305 -286 347 -58 31 -192 31 -253 -1 -60 -31 -110 -84 -166 -177 -92 -151
-121 -193 -136 -193 -8 -1 -25 14 -37 32 -12 17 -39 57 -60 87 -48 67 -139
200 -207 300 -28 41 -53 77 -56 80 -3 3 -23 32 -45 65 -22 33 -42 62 -45 65
-4 3 -16 22 -29 42 -39 65 -112 122 -180 141 -72 20 -98 20 -171 -1z"/>
</g>
</svg>
